<svg xmlns="http://www.w3.org/2000/svg" viewBox="0 0 32 32" fill="#414141" width="32" height="32"><path d="M16 0C7.2 0 0 7.2 0 16c0 3 .9 5.9 2.3 8.3L0 32l7.7-2.3C10.2 31.1 13 32 16 32c8.8 0 16-7.2 16-16S24.8 0 16 0zm1.3 24.6c-.3.3-.7.5-1.2.5s-1-.2-1.2-.5c-.3-.3-.4-.7-.4-1.1 0-.2 0-.4.1-.6.1-.2.2-.4.3-.5.1-.1.3-.3.5-.3.2-.1.4-.1.7-.1.3 0 .5 0 .7.1.2.1.4.2.5.3.1.1.3.3.3.5.1.2.1.4.1.6 0 .5-.1.8-.4 1.1zm3.8-11.4c-.2.5-.4.9-.6 1.3l-.9 1.2c-.3.4-.7.8-1 1.1-.4.4-.7.9-.9 1.4-.2.5-.2.8-.3 1.8h-2.8c0-1 0-1.2.1-1.6.1-.4.2-1 .3-1.3.2-.3.4-.7.6-1 .2-.3.6-.7.9-1 .2-.3.5-.5.7-.7.2-.2.4-.5.6-.7.2-.3.3-.5.4-.8.1-.3.1-.6.1-1 0-.8-.2-1.4-.6-1.8-.4-.4-1-.6-1.7-.6-.3 0-.6.1-.9.1-.3.1-.5.2-.8.4s-.4.6-.5.8c-.1.3-.2 1.2-.2 1.2h-3c0-2 .2-1.6.4-2.2.3-.6.7-1.2 1.1-1.6.5-.4 1-.7 1.7-.9.8-.3 1.5-.4 2.2-.4.8 0 1.6.1 2.2.3.7.2 1.2.5 1.7.9s.8.9 1 1.5c.2.6.4 1.3.4 2.1 0 .6-.1 1.1-.2 1.5z"/></svg>