<svg version="1.1" xmlns="http://www.w3.org/2000/svg" xmlns:xlink="http://www.w3.org/1999/xlink" viewBox="0 0 32 32" fill="#414141" width="32px" height="32px">
  <path d="M28.8,0H3.2C1.4,0,0,1.4,0,3.2l0,25.6C0,30.6,1.4,32,3.2,32h25.6c1.8,0,3.2-1.4,3.2-3.2V3.2 C32,1.4,30.6,0,28.8,0z M9.6,27.2H4.8V12.8h4.8V27.2z M7.2,10.1c-1.6,0-2.9-1.3-2.9-2.9s1.3-2.9,2.9-2.9s2.9,1.3,2.9,2.9 S8.8,10.1,7.2,10.1z M27.2,27.2h-4.8v-8.5c0-1.3-1.1-2.4-2.4-2.4c-1.3,0-2.4,1.1-2.4,2.4v8.5h-4.8V12.8h4.8v1.9 c0.8-1.3,2.5-2.2,4-2.2c3.1,0,5.6,2.5,5.6,5.6V27.2z"></path>
</svg>
