<svg version="1.1" xmlns="http://www.w3.org/2000/svg" xmlns:xlink="http://www.w3.org/1999/xlink" viewBox="0 0 32 32" fill="#414141" width="32px" height="32px">
  <path d="M28.8,0H3.2C1.4,0,0,1.4,0,3.2l0,25.6C0,30.6,1.4,32,3.2,32h25.6c1.8,0,3.2-1.4,3.2-3.2V3.2 C32,1.4,30.6,0,28.8,0z M25.1,11.7c-0.1,7.4-4.8,12.4-11.9,12.8c-2.9,0.1-5-0.8-6.8-2c2.1,0.3,4.8-0.5,6.2-1.7 c-2.1-0.2-3.4-1.3-3.9-3c0.6,0.1,1.2,0.1,1.8,0c-1.9-0.6-3.3-1.8-3.3-4.3C7.7,13.7,8.3,13.9,9,14c-1.4-0.8-2.5-3.8-1.3-5.7 c2.1,2.3,4.7,4.2,8.8,4.5c-1-4.5,4.9-6.9,7.4-3.9c1.1-0.2,1.9-0.6,2.7-1c-0.3,1-1,1.8-1.8,2.4c0.9-0.1,1.6-0.3,2.3-0.7 C26.8,10.3,25.9,11.1,25.1,11.7z"></path>
</svg>
