<svg version="1.1" xmlns="http://www.w3.org/2000/svg" xmlns:xlink="http://www.w3.org/1999/xlink" viewBox="0 0 32 32" fill="#414141" width="32px" height="32px">
  <path d="M28.8,0H3.2C1.4,0,0,1.4,0,3.2l0,25.6C0,30.6,1.4,32,3.2,32h25.6c1.8,0,3.2-1.4,3.2-3.2V3.2 C32,1.4,30.6,0,28.8,0z M26.4,24.8c-0.7,0.2-6,0.8-10.4,0.8c-4.4,0-9.7-0.6-10.4-0.8c-1.9-0.6-2.4-4.5-2.4-8.8 c0-4.3,0.5-8.2,2.4-8.8C6.3,7,11.6,6.4,16,6.4c4.4,0,9.7,0.6,10.4,0.8c1.9,0.6,2.4,4.5,2.4,8.8C28.8,20.3,28.3,24.2,26.4,24.8z M12.8,21.6l8.8-5.6l-8.8-5.6V21.6z"></path>
</svg>
