<svg version="1.1" xmlns="http://www.w3.org/2000/svg" xmlns:xlink="http://www.w3.org/1999/xlink" viewBox="0 0 32 32" fill="#414141" width="32px" height="32px">
  <path d="M28.8,0H3.2C1.4,0,0,1.4,0,3.2l0,25.6C0,30.6,1.4,32,3.2,32h25.6c1.8,0,3.2-1.4,3.2-3.2V3.2 C32,1.4,30.6,0,28.8,0z M11.2,24c-4.4,0-8-3.6-8-8c0-4.4,3.6-8,8-8c2.2,0,4,0.8,5.4,2.1l-2.3,2.3c-0.8-0.8-1.9-1.2-3.1-1.2 c-2.6,0-4.7,2.2-4.7,4.8s2.1,4.8,4.7,4.8c2.4,0,4-1.4,4.3-3.2h-4.3v-3.1h7.5c0.1,0.5,0.1,1.1,0.1,1.7C18.9,20.8,15.8,24,11.2,24z M28.8,16.5h-2.7v2.7h-1.9v-2.7h-2.7v-1.9h2.7V12h1.9v2.7h2.7V16.5z"></path>
</svg>
