<svg version="1.1" xmlns="http://www.w3.org/2000/svg" xmlns:xlink="http://www.w3.org/1999/xlink" viewBox="0 0 32 32" fill="#414141" width="32px" height="32px">
  <path d="M28.8,0H3.2C1.4,0,0,1.4,0,3.2l0,25.6C0,30.6,1.4,32,3.2,32h25.6c1.8,0,3.2-1.4,3.2-3.2V3.2 C32,1.4,30.6,0,28.8,0z M16,9.6c3.5,0,6.4,2.9,6.4,6.4s-2.9,6.4-6.4,6.4S9.6,19.5,9.6,16S12.5,9.6,16,9.6z M4,28.8 c-0.4,0-0.8-0.4-0.8-0.8V14.4h3.3c-0.1,0.5-0.1,1.1-0.1,1.6c0,5.3,4.3,9.6,9.6,9.6c5.3,0,9.6-4.3,9.6-9.6c0-0.5-0.1-1.1-0.1-1.6h3.3 V28c0,0.4-0.4,0.8-0.8,0.8H4z M28.8,7.2C28.8,7.6,28.4,8,28,8h-3.2C24.4,8,24,7.6,24,7.2V4c0-0.4,0.4-0.8,0.8-0.8H28 c0.4,0,0.8,0.4,0.8,0.8V7.2z"></path>
</svg>
