<svg width="40" height="31" xmlns="http://www.w3.org/2000/svg" xmlns:xlink="http://www.w3.org/1999/xlink"><defs><path d="M0 28.24c0 1.109.892 2.008 1.997 2.008h36.006A1.999 1.999 0 0 0 40 28.24V4.95a2.01 2.01 0 0 0-1.996-2.007H15.566c-.551 0-1.284-.338-1.641-.758l-.563-.662C12.647.682 11.18 0 10.075 0H1.993C.893 0 0 .905 0 2.008V28.24z" id="c"/><pattern id="d" width="512" height="512" x="-512" y="-512" patternUnits="userSpaceOnUse"><use xlink:href="#a"/></pattern><path d="M0 28.253c0 1.102.892 1.995 1.997 1.995h36.006A2.004 2.004 0 0 0 40 28.253V6.818a1.994 1.994 0 0 0-1.997-1.995H1.997A2.004 2.004 0 0 0 0 6.818v21.435z" id="e"/><pattern id="f" width="512" height="512" x="-512" y="-507.177" patternUnits="userSpaceOnUse"><use xlink:href="#b"/></pattern><linearGradient x1="50%" y1="0%" x2="50%" y2="98.984%" id="g"><stop stop-color="#FFF" stop-opacity=".303" offset="0%"/><stop stop-color="#ECF6FF" stop-opacity=".102" offset="12.801%"/><stop stop-color="#29639F" stop-opacity=".131" offset="91.709%"/><stop stop-color="#0E4F92" stop-opacity=".135" offset="100%"/></linearGradient></defs><g fill="none" fill-rule="evenodd"><use fill="#94DDFF" xlink:href="#c"/><use fill-opacity=".01" fill="url(#d)" xlink:href="#c"/><mask id="h" fill="#fff"><use xlink:href="#e"/></mask><use fill="#6ACEF9" xlink:href="#e"/><use fill-opacity=".01" fill="url(#f)" xlink:href="#e"/><path fill="url(#g)" mask="url(#h)" d="M-.506 27.305h41.941v1H-.506z"/><path fill="url(#g)" mask="url(#h)" d="M-.506 28.286h41.941v1H-.506z"/><path fill="url(#g)" mask="url(#h)" d="M-.506 29.267h41.941v1H-.506z"/><path d="M9.451 16.548h4.132l-1.268 2.127H9.451v-2.127zm6.796-3.664l1.94 1.085-4.824 8.095-2.057-1.15 4.94-8.03zm-3.109 9.594c-.957.85-2.023 1.843-2.023 1.843-.618.572-.924.374-.691-.43 0 0 .414-1.355.699-2.602l2.015 1.189zm5.266-8.785l-1.975-1.104s.432-.836.614-1.122c.69-.916 2.487-.012 2.039 1.008-.296.47-.678 1.218-.678 1.218zm7.674 4.232c.323.543.783 1.349 1.106 1.892l-1.982 1.11c-.329-.541-.793-1.344-1.122-1.885l1.998-1.117zm-.189-.391l-2.03 1.191s-3.766-6.169-5.592-9.232c-.332-.925 1.362-1.92 2.046-1.25 1.851 3.066 5.576 9.29 5.576 9.29zm-.196 3.638c.604-.338.937-.544 1.541-.882 1.675.589 1.82 3.343 1.152 4.625-.387.573-.155-.554-1.099-1.121-1.835-1.101-1.662-1.633-1.746-2.023-.06-.285.152-.599.152-.599zM17.2 16.548h4.953l1.27 2.131h-7.52l1.297-2.131zm12.672 0v2.078h-2.931c-.433-.693-.73-1.386-1.162-2.078h4.093z" fill="#CFE2EB" style="mix-blend-mode:multiply"/></g></svg>