<svg width="355" height="338" viewBox="0 0 355 338" xmlns="http://www.w3.org/2000/svg"><g transform="translate(1 -15)" stroke="#F9AB00" fill="none" fill-rule="evenodd" opacity=".8"><path d="M162.707 14.85L176.849.706 190.99 14.85l-14.142 14.142z"/><circle cx="177" cy="45" r="10"/><path d="M263 304c7.583 0 7.583 9 15 9 7.749 0 7.749-9 15-9 7.915 0 7.915 9 15 9 8.081 0 8.081-9 16-9 7.248 0 7.248 9 15 9 7.416 0 7.416-9 15-9M223 324c7.583 0 7.583 9 15 9 7.749 0 7.749-9 15-9 7.915 0 7.915 9 15 9 8.081 0 8.081-9 16-9 7.248 0 7.248 9 15 9 7.416 0 7.416-9 15-9" stroke-linecap="round" stroke-linejoin="round"/><g transform="translate(0 302)" stroke-linecap="round" stroke-linejoin="round"><circle cx="4" cy="4" r="4"/><circle cx="39" cy="4" r="4"/><circle cx="74" cy="4" r="4"/><circle cx="57" cy="4" r="4"/><circle cx="22" cy="4" r="4"/><circle cx="4" cy="18" r="4"/><circle cx="39" cy="18" r="4"/><circle cx="74" cy="18" r="4"/><circle cx="57" cy="18" r="4"/><circle cx="22" cy="18" r="4"/><circle cx="4" cy="32" r="4"/><circle cx="39" cy="32" r="4"/><circle cx="74" cy="32" r="4"/><circle cx="57" cy="32" r="4"/><circle cx="22" cy="32" r="4"/><circle cx="4" cy="46" r="4"/><circle cx="39" cy="46" r="4"/><circle cx="74" cy="46" r="4"/><circle cx="57" cy="46" r="4"/><circle cx="22" cy="46" r="4"/></g></g></svg>