<svg width="359" height="279" viewBox="0 0 359 279" xmlns="http://www.w3.org/2000/svg"><g transform="translate(1 1)" stroke="#1A73E8" fill="none" fill-rule="evenodd" opacity=".8" stroke-linecap="round" stroke-linejoin="round"><path d="M54 263H0M54 274H0M54 252H0"/><circle cx="152" cy="8" r="8"/><circle cx="173" cy="8" r="8"/><circle cx="195" cy="8" r="8"/><path d="M267 267c7.583 0 7.583 10 15 10 7.749 0 7.749-10 15-10 7.915 0 7.915 10 15 10 8.081 0 8.081-10 16-10 7.248 0 7.248 10 15 10 7.416 0 7.416-10 15-10"/></g></svg>