<svg width="455" height="318" viewBox="0 0 455 318" xmlns="http://www.w3.org/2000/svg" xmlns:xlink="http://www.w3.org/1999/xlink"><defs><path id="hero-m1-pattern-mobile_svg__a" d="M0 0h502v340H0z"/></defs><g transform="translate(-27 -22)" fill="none" fill-rule="evenodd"><mask id="hero-m1-pattern-mobile_svg__b" fill="#fff"><use xlink:href="#hero-m1-pattern-mobile_svg__a"/></mask><g opacity=".8" mask="url(#hero-m1-pattern-mobile_svg__b)" stroke="#1E8E3E"><g transform="translate(24.907 -129.02)"><path d="M14.093 399.296c31.632-31.632 83.077-31.475 114.905.353 31.828 31.828 31.986 83.273.353 114.905"/><path d="M25.093 410.689c25.775-25.775 67.563-25.775 93.338 0 25.774 25.774 25.775 67.564 0 93.338"/><path d="M34.093 419.79c20.307-20.308 53.39-20.15 73.893.353 20.502 20.503 20.66 53.585.353 73.893"/><path d="M44.093 429.89c14.84-14.84 38.9-14.84 53.74 0 14.84 14.84 14.84 38.9 0 53.74"/><circle transform="rotate(135 9.285 404.212)" cx="9.285" cy="404.212" r="6.5"/><circle transform="rotate(135 40.285 435.212)" cx="40.285" cy="435.212" r="6.5"/><circle transform="rotate(135 21.457 414.384)" cx="21.457" cy="414.384" r="4.5"/><circle transform="rotate(135 30.457 423.384)" cx="30.457" cy="423.384" r="4.5"/><path d="M187.093 152.02l15.169 10 15.168-10 14.157 10 15.169-10 15.169 10 15.168-10"/><path d="M301.093 442.02c9.583 0 9.583 12 18.675 12 10.073 0 10.073-12 19.658-12 9.582 0 9.582 12 18.676 12 10.072 0 10.072-12 19.658-12 9.58 0 9.58 12 18.675 12 10.074 0 10.074-12 19.658-12M342.093 422.02c9.583 0 9.583 12 18.675 12 10.073 0 10.073-12 19.658-12 9.582 0 9.582 12 18.676 12 10.072 0 10.072-12 19.658-12 9.58 0 9.58 12 18.675 12 10.074 0 10.074-12 19.658-12" stroke-linecap="round" stroke-linejoin="round"/></g></g></g></svg>