<svg width="416" height="340" viewBox="0 0 416 340" xmlns="http://www.w3.org/2000/svg"><g stroke="#A50E0E" fill="none" fill-rule="evenodd" opacity=".8"><g stroke-linecap="round" stroke-linejoin="round"><path d="M203 305h10v10h-10zM186.787 341L208 319.787 229.213 341 208 362.213z"/></g><path d="M325 289c7.583 0 7.583 9 15 9 7.749 0 7.749-9 15-9 7.915 0 7.915 9 15 9 8.081 0 8.081-9 16-9 7.248 0 7.248 9 15 9 7.416 0 7.416-9 15-9M0 260c7.583 0 7.583 9 15 9 7.749 0 7.749-9 15-9 7.915 0 7.915 9 15 9 8.081 0 8.081-9 16-9 7.248 0 7.248 9 15 9 7.416 0 7.416-9 15-9" stroke-linecap="round" stroke-linejoin="round"/><g transform="rotate(-90 104 -67)"><circle cx="3" cy="39" r="3"/><path d="M47.109.707l38.184 38.184-38.184 38.184L8.925 38.89z"/></g></g></svg>